<svg xmlns="http://www.w3.org/2000/svg" viewBox="0 0 440.7 559.98"><defs><style>.cls-1{fill:#fff;}.cls-2{fill:#efb604;}.cls-3{fill:#372d12;}</style></defs><g id="Layer_2" data-name="Layer 2"><g id="Layer_2-2" data-name="Layer 2"><path class="cls-1" d="M332.34,155.07s48.94-12.82,61.53,35.23c4.34,20.17-4.93,43.23-32.17,55.92,13.27,3.83,42.13-15.06,45.7-32.94s3.32-44.72-22.47-59.76S332.34,155.07,332.34,155.07Z"/><path class="cls-1" d="M114,311.16S77.32,390.81,157.59,447c4-5.1,2.32-11.91,25.13-11.23s84.08,0,84.08,0,15-1.36,18.05,11.23c-2.73,3.41,80-47.72,44.27-144.37-16-49-109-46.94-126.66-43.88S135.06,269.28,114,311.16Z"/><path class="cls-1" d="M96.59,97.37l21.45-2s12.59-51.75,70.47-70.81,112,15.66,129,52.42c5.79,14.64,11.91,21.11,10.89,63.66.11,1.7,14.64-10.21,41.53-5.44,26.9,7.48,45.28,19.74,51.75,55.14,0,23.83-2.38,37.11-22.13,54.81s-55.15,15.66-68.42,13.28c3.4,8.87,14.29,18.38,14.29,18.38l.34,15.32s-44.89-40.17-128-34.72c-1.38,1.7,52.41-3.41,146.71,70.81,1.7,2.38,1-50.39,1-50.39s55.66-2.21,71-51.74-10.73-116.43-88-109.62c-1-4.42-14-126.64-146-115.74C139.83,9,111,60.6,111,60.6S100.85,81.28,96.59,97.37Z"/><rect class="cls-1" x="164.85" y="447.14" width="112.17" height="19.93" rx="7.91"/><rect class="cls-1" x="154.79" y="485.19" width="134.15" height="19.93" rx="7.91"/><path class="cls-1" d="M266.87,523.24c-1.36,20.49-20.8,36.74-44.58,36.74s-43.22-16.25-44.58-36.74Z"/><line class="cls-1" x1="266.87" y1="523.24" x2="177.71" y2="523.24"/><path class="cls-1" d="M332.34,155.07s48.94-12.82,61.53,35.23c4.34,20.17-4.93,43.23-32.17,55.92,13.27,3.83,42.13-15.06,45.7-32.94s3.32-44.72-22.47-59.76S332.34,155.07,332.34,155.07Z"/><path class="cls-2" d="M114,311.16S77.32,390.81,157.59,447c4-5.1,2.32-11.91,25.13-11.23s84.08,0,84.08,0,15-1.36,18.05,11.23c-2.73,3.41,80-47.72,44.27-144.37-16-49-109-46.94-126.66-43.88S135.06,269.28,114,311.16Z"/><path class="cls-1" d="M96.59,97.37l21.45-2s12.59-51.75,70.47-70.81,112,15.66,129,52.42c5.79,14.64,11.91,21.11,10.89,63.66.11,1.7,14.64-10.21,41.53-5.44,26.9,7.48,45.28,19.74,51.75,55.14,0,23.83-2.38,37.11-22.13,54.81s-55.15,15.66-68.42,13.28c3.4,8.87,14.29,18.38,14.29,18.38l.34,15.32s-44.89-40.17-128-34.72c-1.38,1.7,52.41-3.41,146.71,70.81,1.7,2.38,1-50.39,1-50.39s55.66-2.21,71-51.74-10.73-116.43-88-109.62c-1-4.42-14-126.64-146-115.74C139.83,9,111,60.6,111,60.6S100.85,81.28,96.59,97.37Z"/><rect class="cls-1" x="164.85" y="447.14" width="112.17" height="19.93" rx="7.91"/><rect class="cls-1" x="154.79" y="485.19" width="134.15" height="19.93" rx="7.91"/><path class="cls-1" d="M266.87,523.24c-1.36,20.49-20.8,36.74-44.58,36.74s-43.22-16.25-44.58-36.74Z"/><line class="cls-3" x1="266.87" y1="523.24" x2="177.71" y2="523.24"/></g><g id="Layer_4" data-name="Layer 4"><path class="cls-1" d="M81.27,277.79s-36.42,2-61.61-27.57a81.48,81.48,0,0,1-3.75-101.45c22.13-30,67.75-47,104.85-21.44,24.51,19.06,26.21,43.91,25.87,51.4,0,0-7.83-19.06-23.14-29.28S82.63,124.26,51,143.33,14.55,197.79,26.12,224s63.32,55.49,101.45,8.17c8.17-7.15,11.23-19.41,11.23-19.41s5.45,2,33.37,2,68.08-1,99.4-26.55,42.55-59.91,41.19-67.06c2.73-2,4.43,23.83-2,44.93s-29.62,45.28-52.09,55.15-51.4,16-106.55,11.58c-1.7,7.15-21.11,36.42-50,41.87.68,3.09,1,22.81,1,22.81L80.59,316.26Z"/></g></g></svg>